# Blender 4.5.3 LTS
# www.blender.org
mtllib Github.mtl
o Cylinder
v -0.000000 2.298611 0.114931
v 0.448437 2.254444 0.114931
v 0.879640 2.123640 0.114931
v 1.277040 1.911225 0.114931
v 1.625363 1.625363 0.114931
v 1.911225 1.277040 0.114931
v 2.123640 0.879640 0.114931
v 2.254444 0.448437 0.114931
v 2.298611 -0.000000 0.114931
v 2.254444 -0.448437 0.114931
v 2.123640 -0.879640 0.114931
v 1.911225 -1.277040 0.114931
v 1.625363 -1.625363 0.114931
v 1.277040 -1.911225 0.114931
v 0.879640 -2.123640 0.114931
v -0.879640 -2.123640 0.114931
v -1.277040 -1.911225 0.114931
v -1.625363 -1.625363 0.114931
v -1.911225 -1.277040 0.114931
v -2.123640 -0.879640 0.114931
v -2.254444 -0.448437 0.114931
v -2.298611 -0.000000 0.114931
v -2.254444 0.448437 0.114931
v -2.123640 0.879640 0.114931
v -1.911225 1.277040 0.114931
v -1.625363 1.625363 0.114931
v -1.277040 1.911225 0.114931
v -0.879640 2.123640 0.114931
v -0.448437 2.254444 0.114931
v 0.668000 -2.187840 0.114931
v -0.684189 -2.182929 0.114931
v -0.575626 -2.104626 0.114931
v -0.547444 -1.637456 0.114931
v -0.676960 -1.664613 0.114931
v -0.881789 -1.653773 0.114931
v -1.054060 -1.615819 0.114931
v -1.182892 -1.529179 0.114931
v -1.289678 -1.377919 0.114931
v -1.384995 -1.178268 0.114931
v -1.545216 -1.038326 0.114931
v -1.630556 -0.973749 0.114931
v -1.571018 -0.920041 0.114931
v -1.442226 -0.914652 0.114931
v -1.319063 -0.968376 0.114931
v -1.180434 -1.124446 0.114931
v -1.100496 -1.248368 0.114931
v -0.993376 -1.329296 0.114931
v -0.778324 -1.377919 0.114931
v -0.632967 -1.372518 0.114931
v -0.535903 -1.302313 0.114931
v -0.492497 -1.129830 0.114931
v -0.417077 -1.022194 0.114931
v -0.680112 -0.973749 0.114931
v -1.007044 -0.850223 0.114931
v -1.188467 -0.689410 0.114931
v -1.294489 -0.512792 0.114931
v -1.373248 -0.304563 0.114931
v -1.408448 -0.011823 0.114931
v -1.396371 0.184629 0.114931
v -1.330714 0.417578 0.114931
v -1.201691 0.597074 0.114931
v -1.221029 0.902565 0.114931
v -1.182319 1.143991 0.114931
v -1.150007 1.238406 0.114931
v -0.948716 1.212155 0.114931
v -0.726478 1.107387 0.114931
v -0.556992 0.991753 0.114931
v -0.318119 1.054800 0.114931
v 0.026722 1.070651 0.114931
v 0.313235 1.049589 0.114931
v 0.536335 0.986624 0.114931
v 0.806111 1.143990 0.114931
v 1.038850 1.227808 0.114931
v 1.144839 1.238406 0.114931
v 1.199146 1.060064 0.114931
v 1.206239 0.844712 0.114931
v 1.170430 0.665674 0.114931
v 1.262100 0.507354 0.114931
v 1.359824 0.306490 0.114931
v 1.388039 0.120943 0.114931
v 1.400786 -0.107509 0.114931
v 1.365764 -0.368569 0.114931
v 1.302925 -0.534198 0.114931
v 1.223590 -0.662590 0.114931
v 1.069233 -0.801981 0.114931
v 0.860692 -0.930773 0.114931
v 0.608755 -1.006065 0.114931
v 0.404735 -1.032910 0.114931
v 0.474915 -1.119062 0.114931
v 0.534502 -1.242976 0.114931
v 0.567898 -1.507594 0.114931
v 0.548656 -2.082905 0.114931
v 0.448437 2.254444 -0.173526
v -0.000000 2.298611 -0.173526
v 0.879640 2.123640 -0.173526
v 1.277040 1.911225 -0.173526
v 1.625363 1.625363 -0.173526
v 1.911225 1.277040 -0.173526
v 2.123640 0.879640 -0.173526
v 2.254444 0.448437 -0.173526
v 2.298611 0.000000 -0.173526
v 2.254444 -0.448437 -0.173526
v 2.123640 -0.879640 -0.173526
v 1.911225 -1.277040 -0.173526
v 1.625363 -1.625363 -0.173526
v 1.277040 -1.911225 -0.173526
v 0.879640 -2.123640 -0.173526
v 0.668000 -2.187840 -0.173526
v -1.277040 -1.911225 -0.173526
v -0.879640 -2.123640 -0.173526
v -1.625363 -1.625363 -0.173526
v -1.911225 -1.277040 -0.173526
v -2.123640 -0.879640 -0.173526
v -2.254444 -0.448437 -0.173526
v -2.298611 0.000000 -0.173526
v -2.254444 0.448437 -0.173526
v -2.123640 0.879640 -0.173526
v -1.911225 1.277040 -0.173526
v -1.625363 1.625363 -0.173526
v -1.277040 1.911225 -0.173526
v -0.879640 2.123640 -0.173526
v -0.448437 2.254444 -0.173526
v -0.684189 -2.182929 -0.173526
v -0.575626 -2.104626 -0.173526
v -0.547444 -1.637456 -0.173526
v -0.676960 -1.664613 -0.173526
v -0.881789 -1.653773 -0.173526
v -1.054060 -1.615819 -0.173526
v -1.182892 -1.529179 -0.173526
v -1.289678 -1.377919 -0.173526
v -1.384995 -1.178268 -0.173526
v -1.545216 -1.038326 -0.173526
v -1.630556 -0.973749 -0.173526
v -1.571018 -0.920041 -0.173526
v -1.442226 -0.914652 -0.173526
v -1.319063 -0.968376 -0.173526
v -1.180434 -1.124446 -0.173526
v -1.100496 -1.248368 -0.173526
v -0.993376 -1.329296 -0.173526
v -0.778324 -1.377919 -0.173526
v -0.632967 -1.372518 -0.173526
v -0.535903 -1.302313 -0.173526
v -0.492497 -1.129830 -0.173526
v -0.417077 -1.022194 -0.173526
v -0.680112 -0.973749 -0.173526
v -1.007044 -0.850223 -0.173526
v -1.188467 -0.689410 -0.173526
v -1.294489 -0.512792 -0.173526
v -1.373248 -0.304563 -0.173526
v -1.408448 -0.011823 -0.173526
v -1.396371 0.184629 -0.173526
v -1.330714 0.417578 -0.173526
v -1.201691 0.597074 -0.173526
v -1.221029 0.902565 -0.173526
v -1.182319 1.143991 -0.173526
v -1.150007 1.238406 -0.173526
v -0.948716 1.212155 -0.173526
v -0.726478 1.107387 -0.173526
v -0.556992 0.991753 -0.173526
v -0.318119 1.054800 -0.173526
v 0.026722 1.070651 -0.173526
v 0.313235 1.049589 -0.173526
v 0.536335 0.986624 -0.173526
v 0.806111 1.143990 -0.173526
v 1.038850 1.227808 -0.173526
v 1.144839 1.238406 -0.173526
v 1.199146 1.060064 -0.173526
v 1.206239 0.844712 -0.173526
v 1.170430 0.665674 -0.173526
v 1.262100 0.507354 -0.173526
v 1.359824 0.306490 -0.173526
v 1.388039 0.120943 -0.173526
v 1.400786 -0.107509 -0.173526
v 1.365764 -0.368569 -0.173526
v 1.302925 -0.534198 -0.173526
v 1.223590 -0.662590 -0.173526
v 1.069233 -0.801981 -0.173526
v 0.860692 -0.930773 -0.173526
v 0.608755 -1.006065 -0.173526
v 0.404735 -1.032910 -0.173526
v 0.474915 -1.119062 -0.173526
v 0.534502 -1.242976 -0.173526
v 0.567898 -1.507594 -0.173526
v 0.548656 -2.082905 -0.173526
vn -0.0000 -0.0000 -1.0000
vn -0.0000 -0.0000 1.0000
vn 0.4714 -0.8819 -0.0000
vn -0.0980 -0.9952 -0.0000
vn 0.9984 0.0557 -0.0000
vn -0.6633 -0.7483 -0.0000
vn 0.2903 -0.9569 -0.0000
vn -0.2903 -0.9569 -0.0000
vn 0.9911 -0.1330 -0.0000
vn -0.8574 -0.5147 -0.0000
vn 0.0980 -0.9952 -0.0000
vn -0.4714 -0.8819 -0.0000
vn 0.9350 -0.3547 -0.0000
vn -0.9353 -0.3538 -0.0000
vn 0.2903 0.9569 -0.0000
vn -0.6344 -0.7730 -0.0000
vn 0.8507 -0.5257 -0.0000
vn -0.9928 -0.1194 -0.0000
vn -0.5850 0.8110 -0.0000
vn -0.7730 -0.6344 -0.0000
vn 0.6702 -0.7422 -0.0000
vn -0.9981 0.0614 -0.0000
vn -0.9982 0.0602 -0.0000
vn -0.8819 -0.4714 -0.0000
vn 0.5255 -0.8508 -0.0000
vn -0.9625 0.2713 -0.0000
vn 0.2052 -0.9787 -0.0000
vn -0.9569 -0.2903 -0.0000
vn 0.2863 -0.9581 -0.0000
vn -0.8120 0.5837 -0.0000
vn -0.0528 -0.9986 -0.0000
vn -0.9952 -0.0980 -0.0000
vn 0.1305 -0.9915 -0.0000
vn -0.9980 -0.0632 -0.0000
vn -0.2152 -0.9766 -0.0000
vn -0.9952 0.0980 -0.0000
vn 0.7753 0.6316 -0.0000
vn -0.9874 0.1583 -0.0000
vn -0.5581 -0.8298 -0.0000
vn -0.9569 0.2903 -0.0000
vn 0.9012 0.4334 -0.0000
vn -0.9461 0.3238 -0.0000
vn -0.8169 -0.5767 -0.0000
vn -0.8819 0.4714 -0.0000
vn 0.9921 0.1252 -0.0000
vn 0.1293 0.9916 -0.0000
vn -0.9024 -0.4308 -0.0000
vn -0.7730 0.6344 -0.0000
vn 0.9994 -0.0334 -0.0000
vn 0.4264 0.9045 -0.0000
vn -0.6578 -0.7532 -0.0000
vn -0.6344 0.7730 -0.0000
vn 0.6603 0.7510 -0.0000
vn 0.5636 0.8261 -0.0000
vn -0.6034 -0.7974 -0.0000
vn -0.4714 0.8819 -0.0000
vn -0.2552 0.9669 -0.0000
vn -0.6698 0.7425 -0.0000
vn -0.2903 0.9569 -0.0000
vn -0.0459 0.9989 -0.0000
vn -0.0418 0.9991 -0.0000
vn 0.4714 0.8819 -0.0000
vn 0.0733 0.9973 -0.0000
vn 0.3998 0.9166 -0.0000
vn 0.6344 0.7730 -0.0000
vn 0.2716 0.9624 -0.0000
vn 0.7476 0.6641 -0.0000
vn 0.7730 0.6344 -0.0000
vn -0.5039 0.8638 -0.0000
vn 0.8403 0.5421 -0.0000
vn 0.8819 0.4714 -0.0000
vn -0.3388 0.9408 -0.0000
vn 0.6028 0.7979 -0.0000
vn 0.9569 0.2903 -0.0000
vn -0.0995 0.9950 -0.0000
vn 0.2205 0.9754 -0.0000
vn 0.9952 0.0980 -0.0000
vn 0.9566 0.2913 -0.0000
vn -0.0371 0.9993 -0.0000
vn 0.9952 -0.0980 -0.0000
vn 0.9995 0.0329 -0.0000
vn -0.5861 0.8103 -0.0000
vn 0.9569 -0.2903 -0.0000
vn 0.9806 -0.1961 -0.0000
vn -0.9698 0.2440 -0.0000
vn 0.8819 -0.4714 -0.0000
vn 0.8654 0.5011 -0.0000
vn -0.8190 0.5738 -0.0000
vn 0.7730 -0.6344 -0.0000
vn 0.8992 0.4375 -0.0000
vn -0.1811 -0.9835 -0.0000
vn 0.6344 -0.7730 -0.0000
vn 0.9886 0.1503 -0.0000
vn -0.3534 -0.9355 -0.0000
vt 0.296822 0.485388
vt 0.341844 0.471731
vt 0.383337 0.449553
vt 0.419706 0.419706
vt 0.449553 0.383337
vt 0.471731 0.341844
vt 0.485388 0.296822
vt 0.490000 0.250000
vt 0.485388 0.203178
vt 0.471731 0.158156
vt 0.449553 0.116663
vt 0.419706 0.080294
vt 0.383337 0.050447
vt 0.341844 0.028269
vt 0.319746 0.021566
vt 0.307286 0.032522
vt 0.309295 0.092591
vt 0.305808 0.120220
vt 0.299586 0.133158
vt 0.292259 0.142153
vt 0.313561 0.144956
vt 0.339866 0.152817
vt 0.361640 0.166264
vt 0.377756 0.180818
vt 0.386040 0.194224
vt 0.392601 0.211517
vt 0.396257 0.238775
vt 0.394926 0.262628
vt 0.391980 0.282001
vt 0.381777 0.302973
vt 0.372206 0.319504
vt 0.375944 0.338197
vt 0.375204 0.360682
vt 0.369534 0.379303
vt 0.358467 0.378197
vt 0.334167 0.369445
vt 0.305999 0.353014
vt 0.282705 0.359589
vt 0.252790 0.361788
vt 0.216785 0.360133
vt 0.191844 0.353550
vt 0.174148 0.365623
vt 0.150944 0.376562
vt 0.129927 0.379303
vt 0.126553 0.369445
vt 0.122511 0.344238
vt 0.124530 0.312341
vt 0.111059 0.293600
vt 0.104204 0.269277
vt 0.102943 0.248766
vt 0.106618 0.218200
vt 0.114841 0.196459
vt 0.125911 0.178018
vt 0.144854 0.161227
vt 0.178989 0.148330
vt 0.206453 0.143272
vt 0.198578 0.132033
vt 0.194046 0.114024
vt 0.183911 0.106694
vt 0.168734 0.106130
vt 0.146281 0.111207
vt 0.135096 0.119657
vt 0.126750 0.132596
vt 0.112275 0.148891
vt 0.099416 0.154500
vt 0.085969 0.153938
vt 0.079752 0.148330
vt 0.088663 0.141587
vt 0.105391 0.126976
vt 0.115344 0.106130
vt 0.126493 0.090337
vt 0.139945 0.081291
vt 0.157932 0.077328
vt 0.179318 0.076196
vt 0.192841 0.079032
vt 0.189898 0.030254
vt 0.178563 0.022078
vt 0.158156 0.028269
vt 0.116663 0.050447
vt 0.080294 0.080294
vt 0.050447 0.116663
vt 0.028269 0.158156
vt 0.014612 0.203178
vt 0.010000 0.250000
vt 0.014612 0.296822
vt 0.028269 0.341844
vt 0.050447 0.383337
vt 0.080294 0.419706
vt 0.116663 0.449553
vt 0.158156 0.471731
vt 0.203178 0.485388
vt 0.250000 0.490000
s 0
f 2/1/1 3/2/1 4/3/1 5/4/1 6/5/1 7/6/1 8/7/1 9/8/1 10/9/1 11/10/1 12/11/1 13/12/1 14/13/1 15/14/1 30/15/1 92/16/1 91/17/1 90/18/1 89/19/1 88/20/1 87/21/1 86/22/1 85/23/1 84/24/1 83/25/1 82/26/1 81/27/1 80/28/1 79/29/1 78/30/1 77/31/1 76/32/1 75/33/1 74/34/1 73/35/1 72/36/1 71/37/1 70/38/1 69/39/1 68/40/1 67/41/1 66/42/1 65/43/1 64/44/1 63/45/1 62/46/1 61/47/1 60/48/1 59/49/1 58/50/1 57/51/1 56/52/1 55/53/1 54/54/1 53/55/1 52/56/1 51/57/1 50/58/1 49/59/1 48/60/1 47/61/1 46/62/1 45/63/1 44/64/1 43/65/1 42/66/1 41/67/1 40/68/1 39/69/1 38/70/1 37/71/1 36/72/1 35/73/1 34/74/1 33/75/1 32/76/1 31/77/1 16/78/1 17/79/1 18/80/1 19/81/1 20/82/1 21/83/1 22/84/1 23/85/1 24/86/1 25/87/1 26/88/1 27/89/1 28/90/1 29/91/1 1/92/1
f 93/1/2 94/92/2 122/91/2 121/90/2 120/89/2 119/88/2 118/87/2 117/86/2 116/85/2 115/84/2 114/83/2 113/82/2 112/81/2 111/80/2 109/79/2 110/78/2 123/77/2 124/76/2 125/75/2 126/74/2 127/73/2 128/72/2 129/71/2 130/70/2 131/69/2 132/68/2 133/67/2 134/66/2 135/65/2 136/64/2 137/63/2 138/62/2 139/61/2 140/60/2 141/59/2 142/58/2 143/57/2 144/56/2 145/55/2 146/54/2 147/53/2 148/52/2 149/51/2 150/50/2 151/49/2 152/48/2 153/47/2 154/46/2 155/45/2 156/44/2 157/43/2 158/42/2 159/41/2 160/40/2 161/39/2 162/38/2 163/37/2 164/36/2 165/35/2 166/34/2 167/33/2 168/32/2 169/31/2 170/30/2 171/29/2 172/28/2 173/27/2 174/26/2 175/25/2 176/24/2 177/23/2 178/22/2 179/21/2 180/20/2 181/19/2 182/18/2 183/17/2 184/16/2 108/15/2 107/14/2 106/13/2 105/12/2 104/11/2 103/10/2 102/9/2 101/8/2 100/7/2 99/6/2 98/5/2 97/4/2 96/3/2 95/2/2
f 28/90/3 27/89/3 120/89/3 121/90/3
f 2/1/4 1/92/4 94/92/4 93/1/4
f 80/28/5 81/27/5 173/27/5 172/28/5
f 54/54/6 55/53/6 147/53/6 146/54/6
f 29/91/7 28/90/7 121/90/7 122/91/7
f 3/2/8 2/1/8 93/1/8 95/2/8
f 81/27/9 82/26/9 174/26/9 173/27/9
f 55/53/10 56/52/10 148/52/10 147/53/10
f 1/92/11 29/91/11 122/91/11 94/92/11
f 4/3/12 3/2/12 95/2/12 96/3/12
f 82/26/13 83/25/13 175/25/13 174/26/13
f 56/52/14 57/51/14 149/51/14 148/52/14
f 16/78/15 31/77/15 123/77/15 110/78/15
f 5/4/16 4/3/16 96/3/16 97/4/16
f 83/25/17 84/24/17 176/24/17 175/25/17
f 57/51/18 58/50/18 150/50/18 149/51/18
f 31/77/19 32/76/19 124/76/19 123/77/19
f 6/5/20 5/4/20 97/4/20 98/5/20
f 84/24/21 85/23/21 177/23/21 176/24/21
f 58/50/22 59/49/22 151/49/22 150/50/22
f 32/76/23 33/75/23 125/75/23 124/76/23
f 7/6/24 6/5/24 98/5/24 99/6/24
f 85/23/25 86/22/25 178/22/25 177/23/25
f 59/49/26 60/48/26 152/48/26 151/49/26
f 33/75/27 34/74/27 126/74/27 125/75/27
f 8/7/28 7/6/28 99/6/28 100/7/28
f 86/22/29 87/21/29 179/21/29 178/22/29
f 60/48/30 61/47/30 153/47/30 152/48/30
f 34/74/31 35/73/31 127/73/31 126/74/31
f 9/8/32 8/7/32 100/7/32 101/8/32
f 87/21/33 88/20/33 180/20/33 179/21/33
f 61/47/34 62/46/34 154/46/34 153/47/34
f 35/73/35 36/72/35 128/72/35 127/73/35
f 10/9/36 9/8/36 101/8/36 102/9/36
f 88/20/37 89/19/37 181/19/37 180/20/37
f 62/46/38 63/45/38 155/45/38 154/46/38
f 36/72/39 37/71/39 129/71/39 128/72/39
f 11/10/40 10/9/40 102/9/40 103/10/40
f 89/19/41 90/18/41 182/18/41 181/19/41
f 63/45/42 64/44/42 156/44/42 155/45/42
f 37/71/43 38/70/43 130/70/43 129/71/43
f 12/11/44 11/10/44 103/10/44 104/11/44
f 90/18/45 91/17/45 183/17/45 182/18/45
f 64/44/46 65/43/46 157/43/46 156/44/46
f 38/70/47 39/69/47 131/69/47 130/70/47
f 13/12/48 12/11/48 104/11/48 105/12/48
f 91/17/49 92/16/49 184/16/49 183/17/49
f 65/43/50 66/42/50 158/42/50 157/43/50
f 39/69/51 40/68/51 132/68/51 131/69/51
f 14/13/52 13/12/52 105/12/52 106/13/52
f 92/16/53 30/15/53 108/15/53 184/16/53
f 66/42/54 67/41/54 159/41/54 158/42/54
f 40/68/55 41/67/55 133/67/55 132/68/55
f 15/14/56 14/13/56 106/13/56 107/14/56
f 67/41/57 68/40/57 160/40/57 159/41/57
f 41/67/58 42/66/58 134/66/58 133/67/58
f 30/15/59 15/14/59 107/14/59 108/15/59
f 68/40/60 69/39/60 161/39/60 160/40/60
f 42/66/61 43/65/61 135/65/61 134/66/61
f 17/79/62 16/78/62 110/78/62 109/79/62
f 69/39/63 70/38/63 162/38/63 161/39/63
f 43/65/64 44/64/64 136/64/64 135/65/64
f 18/80/65 17/79/65 109/79/65 111/80/65
f 70/38/66 71/37/66 163/37/66 162/38/66
f 44/64/67 45/63/67 137/63/67 136/64/67
f 19/81/68 18/80/68 111/80/68 112/81/68
f 71/37/69 72/36/69 164/36/69 163/37/69
f 45/63/70 46/62/70 138/62/70 137/63/70
f 20/82/71 19/81/71 112/81/71 113/82/71
f 72/36/72 73/35/72 165/35/72 164/36/72
f 46/62/73 47/61/73 139/61/73 138/62/73
f 21/83/74 20/82/74 113/82/74 114/83/74
f 73/35/75 74/34/75 166/34/75 165/35/75
f 47/61/76 48/60/76 140/60/76 139/61/76
f 22/84/77 21/83/77 114/83/77 115/84/77
f 74/34/78 75/33/78 167/33/78 166/34/78
f 48/60/79 49/59/79 141/59/79 140/60/79
f 23/85/80 22/84/80 115/84/80 116/85/80
f 75/33/81 76/32/81 168/32/81 167/33/81
f 49/59/82 50/58/82 142/58/82 141/59/82
f 24/86/83 23/85/83 116/85/83 117/86/83
f 76/32/84 77/31/84 169/31/84 168/32/84
f 50/58/85 51/57/85 143/57/85 142/58/85
f 25/87/86 24/86/86 117/86/86 118/87/86
f 77/31/87 78/30/87 170/30/87 169/31/87
f 51/57/88 52/56/88 144/56/88 143/57/88
f 26/88/89 25/87/89 118/87/89 119/88/89
f 78/30/90 79/29/90 171/29/90 170/30/90
f 52/56/91 53/55/91 145/55/91 144/56/91
f 27/89/92 26/88/92 119/88/92 120/89/92
f 79/29/93 80/28/93 172/28/93 171/29/93
f 53/55/94 54/54/94 146/54/94 145/55/94
