# Blender 4.5.3 LTS
# www.blender.org
mtllib Tiktok.mtl
o Plane
v 0.132112 -0.456324 -0.112309
v 0.100038 -0.531161 -0.112309
v 0.141276 -0.404395 -0.112309
v 0.136693 1.217600 -0.112309
v 0.136693 1.217600 0.100918
v 0.141276 -0.404395 0.100918
v 0.132112 -0.456324 0.100918
v 0.100038 -0.531161 0.100918
v 0.057274 -0.589199 0.100918
v 0.005345 -0.638072 0.100918
v -0.052692 -0.677782 0.100918
v -0.135166 -0.703746 0.100918
v -0.248187 -0.708328 0.100918
v -0.294006 -0.694583 0.100918
v -0.362734 -0.664037 0.100918
v -0.431463 -0.619745 0.100918
v -0.486446 -0.546434 0.100918
v -0.516992 -0.476178 0.100918
v -0.532265 -0.398286 0.100918
v -0.532265 -0.341776 0.100918
v -0.518519 -0.265411 0.100918
v -0.475755 -0.179882 0.100918
v -0.436045 -0.135590 0.100918
v -0.365789 -0.079080 0.100918
v -0.275678 -0.042425 0.100918
v -0.219168 -0.036315 0.100918
v -0.118366 -0.042425 0.100918
v -0.090875 -0.050061 0.100918
v -0.092402 0.359256 0.100918
v -0.188622 0.362311 0.100918
v -0.283315 0.360784 0.100918
v -0.385644 0.340929 0.100918
v -0.510883 0.299691 0.100918
v -0.591830 0.247763 0.100918
v -0.692632 0.175980 0.100918
v -0.776633 0.084342 0.100918
v -0.857580 -0.039370 0.100918
v -0.901872 -0.149335 0.100918
v -0.933946 -0.273047 0.100918
v -0.935473 -0.416613 0.100918
v -0.918673 -0.538798 0.100918
v -0.840780 -0.740402 0.100918
v -0.759833 -0.859531 0.100918
v -0.657504 -0.954224 0.100918
v -0.532265 -1.035171 0.100918
v -0.356625 -1.094736 0.100918
v -0.237496 -1.111536 0.100918
v -0.135166 -1.106954 0.100918
v -0.020619 -1.087100 0.100918
v 0.106147 -1.050444 0.100918
v 0.249714 -0.964915 0.100918
v 0.348988 -0.879386 0.100918
v 0.422299 -0.774002 0.100918
v 0.474228 -0.685419 0.100918
v 0.526156 -0.543380 0.100918
v 0.544484 -0.448687 0.100918
v 0.544484 0.441731 0.100918
v 0.579611 0.415766 0.100918
v 0.678886 0.362311 0.100918
v 0.802597 0.313437 0.100918
v 0.949219 0.278309 0.100918
v 1.048493 0.269145 0.100918
v 1.106531 0.264563 0.100918
v 1.101949 0.661662 0.100918
v 1.037802 0.666244 0.100918
v 0.955327 0.679990 0.100918
v 0.869798 0.709009 0.100918
v 0.799543 0.741083 0.100918
v 0.700268 0.822030 0.100918
v 0.651394 0.893813 0.100918
v 0.607102 0.964069 0.100918
v 0.567392 1.052652 0.100918
v 0.552119 1.096944 0.100918
v 0.544483 1.161091 0.100918
v 0.542956 1.222183 0.100918
v 0.057274 -0.589199 -0.112309
v 0.005345 -0.638072 -0.112309
v -0.052692 -0.677782 -0.112309
v -0.135166 -0.703746 -0.112309
v -0.248187 -0.708328 -0.112309
v -0.294006 -0.694583 -0.112309
v -0.362734 -0.664037 -0.112309
v -0.431463 -0.619745 -0.112309
v -0.486446 -0.546434 -0.112309
v -0.516992 -0.476178 -0.112309
v -0.532265 -0.398286 -0.112309
v -0.532265 -0.341776 -0.112309
v -0.518519 -0.265411 -0.112309
v -0.475755 -0.179882 -0.112309
v -0.436045 -0.135590 -0.112309
v -0.365789 -0.079080 -0.112309
v -0.275678 -0.042425 -0.112309
v -0.219168 -0.036315 -0.112309
v -0.118366 -0.042425 -0.112309
v -0.090875 -0.050061 -0.112309
v -0.092402 0.359256 -0.112309
v -0.188622 0.362311 -0.112309
v -0.283315 0.360784 -0.112309
v -0.385644 0.340929 -0.112309
v -0.510883 0.299691 -0.112309
v -0.591830 0.247763 -0.112309
v -0.692632 0.175980 -0.112309
v -0.776633 0.084342 -0.112309
v -0.857580 -0.039370 -0.112309
v -0.901872 -0.149335 -0.112309
v -0.933946 -0.273047 -0.112309
v -0.935473 -0.416613 -0.112309
v -0.918673 -0.538798 -0.112309
v -0.840780 -0.740402 -0.112309
v -0.759833 -0.859531 -0.112309
v -0.657504 -0.954224 -0.112309
v -0.532265 -1.035171 -0.112309
v -0.356625 -1.094736 -0.112309
v -0.237496 -1.111536 -0.112309
v -0.135166 -1.106954 -0.112309
v -0.020619 -1.087100 -0.112309
v 0.106147 -1.050444 -0.112309
v 0.249714 -0.964915 -0.112309
v 0.348988 -0.879386 -0.112309
v 0.422299 -0.774002 -0.112309
v 0.474228 -0.685419 -0.112309
v 0.526156 -0.543380 -0.112309
v 0.544484 -0.448687 -0.112309
v 0.544484 0.441731 -0.112309
v 0.579611 0.415766 -0.112309
v 0.678886 0.362311 -0.112309
v 0.802597 0.313437 -0.112309
v 0.949219 0.278309 -0.112309
v 1.048493 0.269145 -0.112309
v 1.106531 0.264563 -0.112309
v 1.101949 0.661662 -0.112309
v 1.037802 0.666244 -0.112309
v 0.955327 0.679990 -0.112309
v 0.869798 0.709009 -0.112309
v 0.799543 0.741083 -0.112309
v 0.700268 0.822030 -0.112309
v 0.651394 0.893813 -0.112309
v 0.607102 0.964069 -0.112309
v 0.567392 1.052652 -0.112309
v 0.552119 1.096944 -0.112309
v 0.544483 1.161091 -0.112309
v 0.542956 1.222183 -0.112309
vn 0.0605 0.9982 -0.0000
vn -0.8627 0.5057 -0.0000
vn -0.0000 -0.0000 -1.0000
vn -0.0000 -0.0000 1.0000
vn 0.2676 0.9635 -0.0000
vn -0.9392 0.3434 -0.0000
vn -1.0000 -0.0037 -0.0000
vn -0.9818 0.1900 -0.0000
vn -0.0317 -0.9995 -0.0000
vn -1.0000 -0.0000 -0.0000
vn 0.0161 -0.9999 -0.0000
vn 0.5944 0.8042 -0.0000
vn 0.1905 -0.9817 -0.0000
vn 1.0000 0.0028 -0.0000
vn 0.4741 0.8805 -0.0000
vn 0.3128 -0.9498 -0.0000
vn 0.9848 -0.1738 -0.0000
vn 0.3674 0.9301 -0.0000
vn 0.5400 -0.8417 -0.0000
vn 0.9191 -0.3939 -0.0000
vn 0.2330 0.9725 -0.0000
vn 0.5801 -0.8146 -0.0000
vn 0.8051 -0.5932 -0.0000
vn 0.0919 0.9958 -0.0000
vn 0.7372 -0.6757 -0.0000
vn 0.6854 -0.7282 -0.0000
vn 0.0787 0.9969 -0.0000
vn 0.8368 -0.5475 -0.0000
vn 0.5647 -0.8253 -0.0000
vn -0.9999 -0.0115 -0.0000
vn 0.9276 -0.3736 -0.0000
vn 0.3003 -0.9538 -0.0000
vn -0.0713 -0.9975 -0.0000
vn 0.9680 -0.2510 -0.0000
vn 0.0405 -0.9992 -0.0000
vn -0.1644 -0.9864 -0.0000
vn 0.9999 -0.0106 -0.0000
vn -0.2873 -0.9578 -0.0000
vn -0.3213 -0.9470 -0.0000
vn 0.9907 0.1362 -0.0000
vn -0.4061 -0.9138 -0.0000
vn -0.4153 -0.9097 -0.0000
vn 0.9328 0.3604 -0.0000
vn -0.5417 -0.8406 -0.0000
vn -0.6319 -0.7750 -0.0000
vn 0.8271 0.5620 -0.0000
vn -0.8000 -0.6000 -0.0000
vn -0.8266 -0.5628 -0.0000
vn 0.6792 0.7340 -0.0000
vn -0.9171 -0.3987 -0.0000
vn -0.8459 -0.5333 -0.0000
vn 0.5428 0.8398 -0.0000
vn -0.9813 -0.1924 -0.0000
vn -0.9125 -0.4091 -0.0000
vn 0.3212 0.9470 -0.0000
vn -0.9454 -0.3260 -0.0000
vn 0.1396 0.9902 -0.0000
vn -0.9842 0.1772 -0.0000
vn -0.9930 -0.1182 -0.0000
vn -0.0447 0.9990 -0.0000
vn -0.8944 0.4472 -0.0000
vn -0.9997 -0.0250 -0.0000
vn -0.1708 0.9853 -0.0000
vn -0.7446 0.6675 -0.0000
vn 0.0113 -0.9999 -0.0000
vn -0.2778 0.9606 -0.0000
vn -0.6268 0.7792 -0.0000
vn -0.5118 0.8591 -0.0000
vn -0.3768 0.9263 -0.0000
vn -0.6527 0.7576 -0.0000
vn -0.1075 0.9942 -0.0000
vn -0.8209 0.5711 -0.0000
vt 0.470173 0.456703
vt 0.444772 0.458242
vt 0.619500 0.294676
vt 0.606414 0.272354
vt 0.437460 0.288903
vt 0.465940 0.290058
vt 0.494804 0.193457
vt 0.425914 0.292367
vt 0.477101 0.454779
vt 0.632585 0.330468
vt 0.476716 0.557922
vt 0.637204 0.354330
vt 0.452469 0.558692
vt 0.637203 0.578704
vt 0.428608 0.558307
vt 0.646055 0.572162
vt 0.402822 0.553303
vt 0.535600 0.365491
vt 0.534445 0.774214
vt 0.671071 0.558691
vt 0.371263 0.542912
vt 0.533291 0.352405
vt 0.702245 0.546376
vt 0.350866 0.529827
vt 0.525208 0.333547
vt 0.739192 0.537524
vt 0.325465 0.511738
vt 0.514432 0.318922
vt 0.764208 0.535215
vt 0.304297 0.488647
vt 0.501347 0.306607
vt 0.778833 0.534060
vt 0.283900 0.457473
vt 0.486722 0.296600
vt 0.777678 0.634125
vt 0.272739 0.429763
vt 0.761514 0.635279
vt 0.264657 0.398589
vt 0.740731 0.638743
vt 0.264272 0.362412
vt 0.719179 0.646055
vt 0.268505 0.331623
vt 0.408595 0.300064
vt 0.701475 0.654138
vt 0.288133 0.280821
vt 0.391276 0.311225
vt 0.676459 0.674535
vt 0.308531 0.250802
vt 0.377421 0.329698
vt 0.664144 0.692624
vt 0.334317 0.226940
vt 0.369724 0.347402
vt 0.652983 0.710328
vt 0.365875 0.206542
vt 0.365875 0.367030
vt 0.642976 0.732649
vt 0.410135 0.191533
vt 0.365875 0.381270
vt 0.639128 0.743811
vt 0.440154 0.187299
vt 0.369339 0.400513
vt 0.637203 0.759975
vt 0.465940 0.188454
vt 0.380115 0.422065
vt 0.636818 0.775369
vt 0.390122 0.433226
vt 0.526748 0.202694
vt 0.407825 0.447466
vt 0.562925 0.224246
vt 0.430532 0.456703
vt 0.587941 0.245798
s 0
f 27/1/1 93/2/1 26/2/1
f 54/3/2 120/4/2 53/4/2
f 13/5/3 12/6/3 49/7/3
f 116/7/4 80/5/4 81/8/4
f 27/1/5 95/9/5 94/1/5
f 55/10/6 121/3/6 54/3/6
f 29/11/7 95/9/7 28/9/7
f 56/12/8 122/10/8 55/10/8
f 29/11/9 97/13/9 96/11/9
f 57/14/10 123/12/10 56/12/10
f 31/15/11 97/13/11 30/13/11
f 58/16/12 124/14/12 57/14/12
f 32/17/13 98/15/13 31/15/13
f 6/18/14 4/19/14 5/19/14
f 59/20/15 125/16/15 58/16/15
f 32/17/16 100/21/16 99/17/16
f 7/22/17 3/18/17 6/18/17
f 60/23/18 126/20/18 59/20/18
f 34/24/19 100/21/19 33/21/19
f 8/25/20 1/22/20 7/22/20
f 61/26/21 127/23/21 60/23/21
f 35/27/22 101/24/22 34/24/22
f 9/28/23 2/25/23 8/25/23
f 62/29/24 128/26/24 61/26/24
f 36/30/25 102/27/25 35/27/25
f 10/31/26 76/28/26 9/28/26
f 63/32/27 129/29/27 62/29/27
f 37/33/28 103/30/28 36/30/28
f 11/34/29 77/31/29 10/31/29
f 63/32/30 131/35/30 130/32/30
f 38/36/31 104/33/31 37/33/31
f 12/6/32 78/34/32 11/34/32
f 65/37/33 131/35/33 64/35/33
f 39/38/34 105/36/34 38/36/34
f 13/5/35 79/6/35 12/6/35
f 66/39/36 132/37/36 65/37/36
f 40/40/37 106/38/37 39/38/37
f 14/8/38 80/5/38 13/5/38
f 67/41/39 133/39/39 66/39/39
f 41/42/40 107/40/40 40/40/40
f 15/43/41 81/8/41 14/8/41
f 68/44/42 134/41/42 67/41/42
f 42/45/43 108/42/43 41/42/43
f 16/46/44 82/43/44 15/43/44
f 69/47/45 135/44/45 68/44/45
f 43/48/46 109/45/46 42/45/46
f 17/49/47 83/46/47 16/46/47
f 70/50/48 136/47/48 69/47/48
f 44/51/49 110/48/49 43/48/49
f 18/52/50 84/49/50 17/49/50
f 71/53/51 137/50/51 70/50/51
f 45/54/52 111/51/52 44/51/52
f 19/55/53 85/52/53 18/52/53
f 71/53/54 139/56/54 138/53/54
f 46/57/55 112/54/55 45/54/55
f 20/58/10 86/55/10 19/55/10
f 73/59/56 139/56/56 72/56/56
f 47/60/57 113/57/57 46/57/57
f 21/61/58 87/58/58 20/58/58
f 73/59/59 141/62/59 140/59/59
f 48/63/60 114/60/60 47/60/60
f 22/64/61 88/61/61 21/61/61
f 75/65/62 141/62/62 74/62/62
f 49/7/63 115/63/63 48/63/63
f 23/66/64 89/64/64 22/64/64
f 5/19/65 142/65/65 75/65/65
f 50/67/66 116/7/66 49/7/66
f 24/68/67 90/66/67 23/66/67
f 51/69/68 117/67/68 50/67/68
f 25/70/69 91/68/69 24/68/69
f 52/71/70 118/69/70 51/69/70
f 26/2/71 92/70/71 25/70/71
f 52/71/72 120/4/72 119/71/72
f 27/1/1 94/1/1 93/2/1
f 54/3/2 121/3/2 120/4/2
f 41/42/3 40/40/3 39/38/3
f 39/38/3 38/36/3 37/33/3
f 37/33/3 36/30/3 35/27/3
f 35/27/3 34/24/3 33/21/3
f 33/21/3 32/17/3 31/15/3
f 31/15/3 30/13/3 29/11/3
f 29/11/3 28/9/3 27/1/3
f 29/11/3 27/1/3 26/2/3
f 33/21/3 31/15/3 29/11/3
f 37/33/3 35/27/3 33/21/3
f 41/42/3 39/38/3 37/33/3
f 43/48/3 42/45/3 41/42/3
f 45/54/3 44/51/3 43/48/3
f 47/60/3 46/57/3 45/54/3
f 49/7/3 48/63/3 47/60/3
f 51/69/3 50/67/3 49/7/3
f 53/4/3 52/71/3 51/69/3
f 55/10/3 54/3/3 53/4/3
f 57/14/3 56/12/3 55/10/3
f 59/20/3 58/16/3 57/14/3
f 61/26/3 60/23/3 59/20/3
f 63/32/3 62/29/3 61/26/3
f 65/37/3 64/35/3 63/32/3
f 66/39/3 65/37/3 63/32/3
f 63/32/3 61/26/3 59/20/3
f 57/14/3 55/10/3 53/4/3
f 63/32/3 59/20/3 57/14/3
f 67/41/3 66/39/3 63/32/3
f 68/44/3 67/41/3 63/32/3
f 57/14/3 53/4/3 51/69/3
f 68/44/3 63/32/3 57/14/3
f 69/47/3 68/44/3 57/14/3
f 57/14/3 51/69/3 49/7/3
f 49/7/3 47/60/3 45/54/3
f 45/54/3 43/48/3 41/42/3
f 41/42/3 37/33/3 33/21/3
f 33/21/3 29/11/3 26/2/3
f 33/21/3 26/2/3 25/70/3
f 49/7/3 45/54/3 41/42/3
f 70/50/3 69/47/3 57/14/3
f 33/21/3 25/70/3 24/68/3
f 33/21/3 24/68/3 23/66/3
f 70/50/3 57/14/3 49/7/3
f 71/53/3 70/50/3 49/7/3
f 41/42/3 33/21/3 23/66/3
f 41/42/3 23/66/3 22/64/3
f 72/56/3 71/53/3 49/7/3
f 73/59/3 72/56/3 49/7/3
f 41/42/3 22/64/3 21/61/3
f 41/42/3 21/61/3 20/58/3
f 74/62/3 73/59/3 49/7/3
f 5/19/3 75/65/3 74/62/3
f 6/18/3 5/19/3 74/62/3
f 41/42/3 20/58/3 19/55/3
f 41/42/3 19/55/3 18/52/3
f 7/22/3 6/18/3 74/62/3
f 7/22/3 74/62/3 49/7/3
f 41/42/3 18/52/3 17/49/3
f 41/42/3 17/49/3 16/46/3
f 8/25/3 7/22/3 49/7/3
f 9/28/3 8/25/3 49/7/3
f 49/7/3 41/42/3 16/46/3
f 49/7/3 16/46/3 15/43/3
f 10/31/3 9/28/3 49/7/3
f 11/34/3 10/31/3 49/7/3
f 49/7/3 15/43/3 14/8/3
f 49/7/3 14/8/3 13/5/3
f 12/6/3 11/34/3 49/7/3
f 106/38/4 107/40/4 108/42/4
f 108/42/4 109/45/4 110/48/4
f 110/48/4 111/51/4 112/54/4
f 112/54/4 113/57/4 114/60/4
f 114/60/4 115/63/4 116/7/4
f 116/7/4 117/67/4 118/69/4
f 118/69/4 119/71/4 120/4/4
f 120/4/4 121/3/4 122/10/4
f 122/10/4 123/12/4 124/14/4
f 124/14/4 125/16/4 126/20/4
f 126/20/4 127/23/4 128/26/4
f 128/26/4 129/29/4 130/32/4
f 130/32/4 131/35/4 132/37/4
f 130/32/4 132/37/4 133/39/4
f 126/20/4 128/26/4 130/32/4
f 120/4/4 122/10/4 124/14/4
f 124/14/4 126/20/4 130/32/4
f 130/32/4 133/39/4 134/41/4
f 130/32/4 134/41/4 135/44/4
f 118/69/4 120/4/4 124/14/4
f 124/14/4 130/32/4 135/44/4
f 124/14/4 135/44/4 136/47/4
f 116/7/4 118/69/4 124/14/4
f 112/54/4 114/60/4 116/7/4
f 108/42/4 110/48/4 112/54/4
f 105/36/4 106/38/4 108/42/4
f 103/30/4 104/33/4 105/36/4
f 101/24/4 102/27/4 103/30/4
f 99/17/4 100/21/4 101/24/4
f 97/13/4 98/15/4 99/17/4
f 95/9/4 96/11/4 97/13/4
f 94/1/4 95/9/4 97/13/4
f 97/13/4 99/17/4 101/24/4
f 101/24/4 103/30/4 105/36/4
f 105/36/4 108/42/4 112/54/4
f 124/14/4 136/47/4 137/50/4
f 124/14/4 137/50/4 138/53/4
f 105/36/4 112/54/4 116/7/4
f 97/13/4 101/24/4 105/36/4
f 93/2/4 94/1/4 97/13/4
f 92/70/4 93/2/4 97/13/4
f 116/7/4 124/14/4 138/53/4
f 116/7/4 138/53/4 139/56/4
f 92/70/4 97/13/4 105/36/4
f 91/68/4 92/70/4 105/36/4
f 116/7/4 139/56/4 140/59/4
f 141/62/4 142/65/4 4/19/4
f 116/7/4 140/59/4 141/62/4
f 90/66/4 91/68/4 105/36/4
f 89/64/4 90/66/4 105/36/4
f 141/62/4 4/19/4 3/18/4
f 141/62/4 3/18/4 1/22/4
f 88/61/4 89/64/4 105/36/4
f 87/58/4 88/61/4 105/36/4
f 116/7/4 141/62/4 1/22/4
f 116/7/4 1/22/4 2/25/4
f 86/55/4 87/58/4 105/36/4
f 85/52/4 86/55/4 105/36/4
f 116/7/4 2/25/4 76/28/4
f 116/7/4 76/28/4 77/31/4
f 84/49/4 85/52/4 105/36/4
f 83/46/4 84/49/4 105/36/4
f 116/7/4 77/31/4 78/34/4
f 116/7/4 78/34/4 79/6/4
f 83/46/4 105/36/4 116/7/4
f 82/43/4 83/46/4 116/7/4
f 116/7/4 79/6/4 80/5/4
f 81/8/4 82/43/4 116/7/4
f 27/1/5 28/9/5 95/9/5
f 55/10/6 122/10/6 121/3/6
f 29/11/7 96/11/7 95/9/7
f 56/12/8 123/12/8 122/10/8
f 29/11/9 30/13/9 97/13/9
f 57/14/10 124/14/10 123/12/10
f 31/15/11 98/15/11 97/13/11
f 58/16/12 125/16/12 124/14/12
f 32/17/13 99/17/13 98/15/13
f 6/18/14 3/18/14 4/19/14
f 59/20/15 126/20/15 125/16/15
f 32/17/16 33/21/16 100/21/16
f 7/22/17 1/22/17 3/18/17
f 60/23/18 127/23/18 126/20/18
f 34/24/19 101/24/19 100/21/19
f 8/25/20 2/25/20 1/22/20
f 61/26/21 128/26/21 127/23/21
f 35/27/22 102/27/22 101/24/22
f 9/28/23 76/28/23 2/25/23
f 62/29/24 129/29/24 128/26/24
f 36/30/25 103/30/25 102/27/25
f 10/31/26 77/31/26 76/28/26
f 63/32/27 130/32/27 129/29/27
f 37/33/28 104/33/28 103/30/28
f 11/34/29 78/34/29 77/31/29
f 63/32/30 64/35/30 131/35/30
f 38/36/31 105/36/31 104/33/31
f 12/6/32 79/6/32 78/34/32
f 65/37/33 132/37/33 131/35/33
f 39/38/34 106/38/34 105/36/34
f 13/5/35 80/5/35 79/6/35
f 66/39/36 133/39/36 132/37/36
f 40/40/37 107/40/37 106/38/37
f 14/8/38 81/8/38 80/5/38
f 67/41/39 134/41/39 133/39/39
f 41/42/40 108/42/40 107/40/40
f 15/43/41 82/43/41 81/8/41
f 68/44/42 135/44/42 134/41/42
f 42/45/43 109/45/43 108/42/43
f 16/46/44 83/46/44 82/43/44
f 69/47/45 136/47/45 135/44/45
f 43/48/46 110/48/46 109/45/46
f 17/49/47 84/49/47 83/46/47
f 70/50/48 137/50/48 136/47/48
f 44/51/49 111/51/49 110/48/49
f 18/52/50 85/52/50 84/49/50
f 71/53/51 138/53/51 137/50/51
f 45/54/52 112/54/52 111/51/52
f 19/55/53 86/55/53 85/52/53
f 71/53/54 72/56/54 139/56/54
f 46/57/55 113/57/55 112/54/55
f 20/58/10 87/58/10 86/55/10
f 73/59/56 140/59/56 139/56/56
f 47/60/57 114/60/57 113/57/57
f 21/61/58 88/61/58 87/58/58
f 73/59/59 74/62/59 141/62/59
f 48/63/60 115/63/60 114/60/60
f 22/64/61 89/64/61 88/61/61
f 75/65/62 142/65/62 141/62/62
f 49/7/63 116/7/63 115/63/63
f 23/66/64 90/66/64 89/64/64
f 5/19/65 4/19/65 142/65/65
f 50/67/66 117/67/66 116/7/66
f 24/68/67 91/68/67 90/66/67
f 51/69/68 118/69/68 117/67/68
f 25/70/69 92/70/69 91/68/69
f 52/71/70 119/71/70 118/69/70
f 26/2/71 93/2/71 92/70/71
f 52/71/72 53/4/72 120/4/72
