# Blender 4.5.3 LTS
# www.blender.org
mtllib Youtube.mtl
o Cube
v -1.830258 -1.716314 -0.392779
v -2.686269 -0.860303 -0.392779
v -1.952081 -1.707601 -0.392779
v -2.071424 -1.681639 -0.392779
v -2.185858 -1.638958 -0.392779
v -2.293052 -1.580425 -0.392779
v -2.390826 -1.507233 -0.392779
v -2.477188 -1.420871 -0.392779
v -2.550380 -1.323097 -0.392779
v -2.608913 -1.215903 -0.392779
v -2.651594 -1.101469 -0.392779
v -2.677556 -0.982126 -0.392779
v -2.686269 -0.860303 0.364350
v -1.830258 -1.716314 0.364350
v -2.677556 -0.982126 0.364350
v -2.651594 -1.101469 0.364350
v -2.608913 -1.215903 0.364350
v -2.550380 -1.323097 0.364350
v -2.477188 -1.420871 0.364350
v -2.390826 -1.507233 0.364350
v -2.293052 -1.580425 0.364350
v -2.185858 -1.638958 0.364350
v -2.071424 -1.681639 0.364350
v -1.952081 -1.707601 0.364350
v -2.686269 0.888732 -0.392779
v -1.830258 1.744742 -0.392779
v -2.677556 1.010555 -0.392779
v -2.651594 1.129898 -0.392779
v -2.608913 1.244332 -0.392779
v -2.550380 1.351526 -0.392779
v -2.477188 1.449300 -0.392779
v -2.390826 1.535662 -0.392779
v -2.293052 1.608854 -0.392779
v -2.185858 1.667387 -0.392779
v -2.071424 1.710068 -0.392779
v -1.952081 1.736030 -0.392779
v -1.830258 1.744743 0.364350
v -2.686269 0.888732 0.364350
v -1.952081 1.736030 0.364350
v -2.071424 1.710068 0.364350
v -2.185858 1.667386 0.364350
v -2.293052 1.608854 0.364350
v -2.390826 1.535662 0.364350
v -2.477188 1.449300 0.364350
v -2.550380 1.351526 0.364350
v -2.608913 1.244332 0.364350
v -2.651594 1.129898 0.364350
v -2.677556 1.010555 0.364350
v 2.686269 -0.860303 -0.392779
v 1.830258 -1.716314 -0.392779
v 2.677556 -0.982126 -0.392779
v 2.651594 -1.101469 -0.392779
v 2.608913 -1.215903 -0.392779
v 2.550380 -1.323097 -0.392779
v 2.477188 -1.420871 -0.392779
v 2.390826 -1.507233 -0.392779
v 2.293052 -1.580425 -0.392779
v 2.185858 -1.638958 -0.392779
v 2.071424 -1.681639 -0.392779
v 1.952081 -1.707601 -0.392779
v 1.830258 -1.716314 0.364350
v 2.686269 -0.860303 0.364350
v 1.952081 -1.707601 0.364350
v 2.071424 -1.681639 0.364350
v 2.185858 -1.638958 0.364350
v 2.293052 -1.580425 0.364350
v 2.390826 -1.507233 0.364350
v 2.477188 -1.420871 0.364350
v 2.550380 -1.323097 0.364350
v 2.608913 -1.215903 0.364350
v 2.651594 -1.101469 0.364350
v 2.677556 -0.982126 0.364350
v 1.830258 1.744742 -0.392779
v 2.686269 0.888732 -0.392779
v 1.952081 1.736030 -0.392779
v 2.071424 1.710068 -0.392779
v 2.185858 1.667387 -0.392779
v 2.293052 1.608854 -0.392779
v 2.390826 1.535662 -0.392779
v 2.477188 1.449300 -0.392779
v 2.550380 1.351526 -0.392779
v 2.608913 1.244332 -0.392779
v 2.651594 1.129898 -0.392779
v 2.677556 1.010555 -0.392779
v 2.686269 0.888732 0.364350
v 1.830258 1.744743 0.364350
v 2.677556 1.010555 0.364350
v 2.651594 1.129898 0.364350
v 2.608913 1.244332 0.364350
v 2.550380 1.351526 0.364350
v 2.477188 1.449300 0.364350
v 2.390826 1.535662 0.364350
v 2.293052 1.608854 0.364350
v 2.185858 1.667386 0.364350
v 2.071424 1.710068 0.364350
v 1.952081 1.736030 0.364350
v -0.721597 -0.985786 -0.066775
v -0.721597 -0.985786 0.521637
v -0.721597 1.014214 -0.066775
v -0.721597 1.014214 0.521637
v 1.278403 0.014214 -0.066775
v 1.278403 0.014214 0.521637
vn -0.0713 -0.9975 -0.0000
vn -0.2126 -0.9771 -0.0000
vn -0.3495 -0.9369 -0.0000
vn -0.4792 -0.8777 -0.0000
vn -0.5993 -0.8005 -0.0000
vn -0.7071 -0.7071 -0.0000
vn -0.8005 -0.5993 -0.0000
vn -0.8777 -0.4792 -0.0000
vn -0.9369 -0.3495 -0.0000
vn -0.9771 -0.2126 -0.0000
vn -0.9975 -0.0713 -0.0000
vn -0.0713 0.9975 -0.0000
vn -0.2126 0.9771 -0.0000
vn -0.3495 0.9369 -0.0000
vn -0.4792 0.8777 -0.0000
vn -0.5993 0.8005 -0.0000
vn -0.7071 0.7071 -0.0000
vn -0.8005 0.5993 -0.0000
vn -0.8777 0.4792 -0.0000
vn -0.9369 0.3495 -0.0000
vn -0.9771 0.2126 -0.0000
vn -0.9975 0.0713 -0.0000
vn 0.9975 0.0713 -0.0000
vn 0.9771 0.2126 -0.0000
vn 0.9369 0.3495 -0.0000
vn 0.8777 0.4792 -0.0000
vn 0.8005 0.5993 -0.0000
vn 0.7071 0.7071 -0.0000
vn 0.5993 0.8005 -0.0000
vn 0.4792 0.8777 -0.0000
vn 0.3495 0.9369 -0.0000
vn 0.2126 0.9771 -0.0000
vn 0.0713 0.9975 -0.0000
vn 0.0713 -0.9975 -0.0000
vn 0.2126 -0.9771 -0.0000
vn 0.3495 -0.9369 -0.0000
vn 0.4792 -0.8777 -0.0000
vn 0.5993 -0.8005 -0.0000
vn 0.7071 -0.7071 -0.0000
vn 0.8005 -0.5993 -0.0000
vn 0.8777 -0.4792 -0.0000
vn 0.9369 -0.3495 -0.0000
vn 0.9771 -0.2126 -0.0000
vn 0.9975 -0.0713 -0.0000
vn -0.0000 -0.0000 -1.0000
vn -1.0000 -0.0000 -0.0000
vn -0.0000 -1.0000 -0.0000
vn -0.0000 -0.0000 1.0000
vn -0.0000 1.0000 -0.0000
vn 1.0000 -0.0000 -0.0000
vn 0.4472 0.8944 -0.0000
vn 0.4472 -0.8944 -0.0000
vn -0.4793 0.8777 -0.0000
vt 0.625000 0.960167
vt 0.375000 0.965836
vt 0.375000 0.960167
vt 0.625000 0.971390
vt 0.375000 0.971390
vt 0.375000 0.976714
vt 0.625000 0.976714
vt 0.375000 0.981702
vt 0.625000 1.000000
vt 0.375000 1.000000
vt 0.625000 0.000000
vt 0.375000 0.021341
vt 0.375000 0.000000
vt 0.625000 0.021341
vt 0.375000 0.028403
vt 0.625000 0.028403
vt 0.375000 0.036146
vt 0.625000 0.036146
vt 0.375000 0.044412
vt 0.625000 0.044412
vt 0.375000 0.053032
vt 0.625000 0.061832
vt 0.375000 0.061832
vt 0.375000 0.289833
vt 0.625000 0.284164
vt 0.625000 0.289833
vt 0.375000 0.284164
vt 0.625000 0.278611
vt 0.375000 0.278611
vt 0.625000 0.273286
vt 0.375000 0.273286
vt 0.625000 0.268297
vt 0.375000 0.263748
vt 0.625000 0.263748
vt 0.625000 0.228659
vt 0.375000 0.228659
vt 0.625000 0.221597
vt 0.375000 0.221597
vt 0.625000 0.213854
vt 0.375000 0.213854
vt 0.625000 0.205588
vt 0.375000 0.205588
vt 0.625000 0.196968
vt 0.375000 0.196968
vt 0.625000 0.188168
vt 0.375000 0.561832
vt 0.625395 0.553032
vt 0.625000 0.561832
vt 0.374605 0.553032
vt 0.626571 0.544412
vt 0.373429 0.544412
vt 0.628504 0.536146
vt 0.371496 0.536146
vt 0.631156 0.528403
vt 0.365529 0.521341
vt 0.634471 0.521340
vt 0.638384 0.514338
vt 0.361616 0.514338
vt 0.642813 0.509071
vt 0.352331 0.504823
vt 0.647669 0.504823
vt 0.652853 0.501681
vt 0.347147 0.501681
vt 0.658259 0.499708
vt 0.341741 0.499708
vt 0.653026 0.488193
vt 0.346974 0.761807
vt 0.658259 0.750292
vt 0.653026 0.761807
vt 0.341741 0.750292
vt 0.652853 0.748320
vt 0.347147 0.748320
vt 0.647669 0.745177
vt 0.357187 0.740929
vt 0.642813 0.740929
vt 0.638384 0.735662
vt 0.361616 0.735662
vt 0.634471 0.728659
vt 0.368844 0.721597
vt 0.631156 0.721597
vt 0.628504 0.713854
vt 0.371496 0.713854
vt 0.626571 0.705588
vt 0.374605 0.696968
vt 0.625395 0.696968
vt 0.625000 0.688168
vt 0.125000 0.688168
vt 0.375000 0.188168
vt 0.851714 0.505588
vt 0.856703 0.740184
vt 0.346974 0.488193
vt 0.375000 0.688168
vt 0.375000 0.250000
vt 0.625000 0.250000
vt 0.375000 0.500000
vt 0.625000 0.750000
vt 0.375000 0.750000
vt 0.125000 0.500000
vt 0.125000 0.750000
vt 0.625000 0.500000
vt 0.875000 0.500000
vt 0.875000 0.750000
vt 0.625000 0.965836
vt 0.625000 0.981702
vt 0.625000 0.053032
vt 0.375000 0.268297
vt 0.368844 0.528403
vt 0.357187 0.509071
vt 0.352331 0.745177
vt 0.365528 0.728659
vt 0.373429 0.705588
vt 0.125000 0.561832
vt 0.125405 0.553032
vt 0.126614 0.544412
vt 0.128600 0.536146
vt 0.131323 0.528403
vt 0.134729 0.521340
vt 0.138748 0.515102
vt 0.143298 0.509816
vt 0.148286 0.505588
vt 0.153611 0.502505
vt 0.159164 0.500629
vt 0.164833 0.500000
vt 0.164833 0.750000
vt 0.159164 0.749371
vt 0.153611 0.747495
vt 0.148286 0.744412
vt 0.143298 0.740184
vt 0.138748 0.734898
vt 0.134729 0.728659
vt 0.131323 0.721597
vt 0.128600 0.713854
vt 0.126614 0.705588
vt 0.125405 0.696968
vt 0.835167 0.500000
vt 0.840836 0.500629
vt 0.846389 0.502505
vt 0.856703 0.509816
vt 0.861252 0.515102
vt 0.865271 0.521341
vt 0.868677 0.528403
vt 0.871400 0.536146
vt 0.873387 0.544412
vt 0.874595 0.553032
vt 0.875000 0.561832
vt 0.875000 0.688168
vt 0.874595 0.696968
vt 0.873387 0.705588
vt 0.871400 0.713854
vt 0.868677 0.721597
vt 0.865271 0.728660
vt 0.861252 0.734898
vt 0.851714 0.744412
vt 0.846390 0.747495
vt 0.840836 0.749371
vt 0.835167 0.750000
s 0
f 14/1/1 3/2/1 1/3/1
f 3/2/2 23/4/2 4/5/2
f 23/4/3 5/6/3 4/5/3
f 22/7/4 6/8/4 5/6/4
f 6/8/5 20/9/5 7/10/5
f 20/11/6 8/12/6 7/13/6
f 19/14/7 9/15/7 8/12/7
f 18/16/8 10/17/8 9/15/8
f 17/18/9 11/19/9 10/17/9
f 16/20/10 12/21/10 11/19/10
f 12/21/11 13/22/11 2/23/11
f 26/24/12 39/25/12 37/26/12
f 36/27/13 40/28/13 39/25/13
f 35/29/14 41/30/14 40/28/14
f 34/31/15 42/32/15 41/30/15
f 42/32/16 32/33/16 43/34/16
f 32/33/17 44/35/17 43/34/17
f 31/36/18 45/37/18 44/35/18
f 30/38/19 46/39/19 45/37/19
f 29/40/20 47/41/20 46/39/20
f 28/42/21 48/43/21 47/41/21
f 27/44/22 38/45/22 48/43/22
f 74/46/23 87/47/23 85/48/23
f 84/49/24 88/50/24 87/47/24
f 83/51/25 89/52/25 88/50/25
f 82/53/26 90/54/26 89/52/26
f 90/54/27 80/55/27 91/56/27
f 80/55/28 92/57/28 91/56/28
f 79/58/29 93/59/29 92/57/29
f 93/59/30 77/60/30 94/61/30
f 77/60/31 95/62/31 94/61/31
f 76/63/32 96/64/32 95/62/32
f 75/65/33 86/66/33 96/64/33
f 50/67/34 63/68/34 61/69/34
f 60/70/35 64/71/35 63/68/35
f 59/72/36 65/73/36 64/71/36
f 65/73/37 57/74/37 66/75/37
f 57/74/38 67/76/38 66/75/38
f 56/77/39 68/78/39 67/76/39
f 68/78/40 54/79/40 69/80/40
f 54/79/41 70/81/41 69/80/41
f 53/82/42 71/83/42 70/81/42
f 71/83/43 51/84/43 72/85/43
f 51/84/44 62/86/44 72/85/44
f 77/60/45 57/74/45 2/87/45
f 13/22/46 25/88/46 2/23/46
f 61/69/47 1/3/47 50/67/47
f 41/89/48 21/90/48 62/86/48
f 37/26/49 73/91/49 26/24/49
f 85/48/50 49/92/50 74/46/50
f 98/11/46 99/93/46 97/13/46
f 100/94/51 101/95/51 99/93/51
f 102/96/52 97/10/52 101/97/52
f 99/98/45 101/97/45 97/99/45
f 102/100/48 100/101/48 98/102/48
f 14/1/1 24/103/1 3/2/1
f 3/2/2 24/103/2 23/4/2
f 23/4/3 22/7/3 5/6/3
f 22/7/4 21/104/4 6/8/4
f 6/8/5 21/104/5 20/9/5
f 20/11/6 19/14/6 8/12/6
f 19/14/7 18/16/7 9/15/7
f 18/16/8 17/18/8 10/17/8
f 17/18/9 16/20/9 11/19/9
f 16/20/10 15/105/10 12/21/10
f 12/21/11 15/105/11 13/22/11
f 26/24/12 36/27/12 39/25/12
f 36/27/13 35/29/13 40/28/13
f 35/29/14 34/31/14 41/30/14
f 34/31/53 33/106/53 42/32/53
f 42/32/16 33/106/16 32/33/16
f 32/33/17 31/36/17 44/35/17
f 31/36/18 30/38/18 45/37/18
f 30/38/19 29/40/19 46/39/19
f 29/40/20 28/42/20 47/41/20
f 28/42/21 27/44/21 48/43/21
f 27/44/22 25/88/22 38/45/22
f 74/46/23 84/49/23 87/47/23
f 84/49/24 83/51/24 88/50/24
f 83/51/25 82/53/25 89/52/25
f 82/53/26 81/107/26 90/54/26
f 90/54/27 81/107/27 80/55/27
f 80/55/28 79/58/28 92/57/28
f 79/58/29 78/108/29 93/59/29
f 93/59/30 78/108/30 77/60/30
f 77/60/31 76/63/31 95/62/31
f 76/63/32 75/65/32 96/64/32
f 75/65/33 73/91/33 86/66/33
f 50/67/34 60/70/34 63/68/34
f 60/70/35 59/72/35 64/71/35
f 59/72/36 58/109/36 65/73/36
f 65/73/37 58/109/37 57/74/37
f 57/74/38 56/77/38 67/76/38
f 56/77/39 55/110/39 68/78/39
f 68/78/40 55/110/40 54/79/40
f 54/79/41 53/82/41 70/81/41
f 53/82/42 52/111/42 71/83/42
f 71/83/43 52/111/43 51/84/43
f 51/84/44 49/92/44 62/86/44
f 2/87/45 25/112/45 27/113/45
f 27/113/45 28/114/45 29/115/45
f 29/115/45 30/116/45 31/117/45
f 31/117/45 32/118/45 33/119/45
f 33/119/45 34/120/45 35/121/45
f 35/121/45 36/122/45 26/123/45
f 26/123/45 73/91/45 75/65/45
f 75/65/45 76/63/45 77/60/45
f 77/60/45 78/108/45 79/58/45
f 79/58/45 80/55/45 81/107/45
f 81/107/45 82/53/45 83/51/45
f 83/51/45 84/49/45 74/46/45
f 74/46/45 49/92/45 51/84/45
f 51/84/45 52/111/45 53/82/45
f 53/82/45 54/79/45 55/110/45
f 55/110/45 56/77/45 57/74/45
f 57/74/45 58/109/45 59/72/45
f 59/72/45 60/70/45 50/67/45
f 50/67/45 1/124/45 3/125/45
f 3/125/45 4/126/45 5/127/45
f 5/127/45 6/128/45 7/129/45
f 7/129/45 8/130/45 9/131/45
f 9/131/45 10/132/45 11/133/45
f 11/133/45 12/134/45 2/87/45
f 2/87/45 27/113/45 29/115/45
f 29/115/45 31/117/45 33/119/45
f 33/119/45 35/121/45 26/123/45
f 26/123/45 75/65/45 77/60/45
f 77/60/45 79/58/45 81/107/45
f 81/107/45 83/51/45 74/46/45
f 74/46/45 51/84/45 53/82/45
f 53/82/45 55/110/45 57/74/45
f 57/74/45 59/72/45 50/67/45
f 50/67/45 3/125/45 5/127/45
f 5/127/45 7/129/45 9/131/45
f 9/131/45 11/133/45 2/87/45
f 2/87/45 29/115/45 33/119/45
f 33/119/45 26/123/45 77/60/45
f 77/60/45 81/107/45 74/46/45
f 74/46/45 53/82/45 57/74/45
f 57/74/45 50/67/45 5/127/45
f 5/127/45 9/131/45 2/87/45
f 2/87/45 33/119/45 77/60/45
f 77/60/45 74/46/45 57/74/45
f 57/74/45 5/127/45 2/87/45
f 13/22/46 38/45/46 25/88/46
f 61/69/47 14/1/47 1/3/47
f 62/86/48 85/48/48 87/47/48
f 87/47/48 88/50/48 89/52/48
f 89/52/48 90/54/48 91/56/48
f 91/56/48 92/57/48 93/59/48
f 93/59/48 94/61/48 95/62/48
f 95/62/48 96/64/48 86/66/48
f 86/66/48 37/135/48 39/136/48
f 39/136/48 40/137/48 41/89/48
f 41/89/48 42/138/48 43/139/48
f 43/139/48 44/140/48 45/141/48
f 45/141/48 46/142/48 47/143/48
f 47/143/48 48/144/48 38/145/48
f 38/145/48 13/146/48 15/147/48
f 15/147/48 16/148/48 17/149/48
f 17/149/48 18/150/48 19/151/48
f 19/151/48 20/152/48 21/90/48
f 21/90/48 22/153/48 23/154/48
f 23/154/48 24/155/48 14/156/48
f 14/156/48 61/69/48 63/68/48
f 63/68/48 64/71/48 65/73/48
f 65/73/48 66/75/48 67/76/48
f 67/76/48 68/78/48 69/80/48
f 69/80/48 70/81/48 71/83/48
f 71/83/48 72/85/48 62/86/48
f 62/86/48 87/47/48 89/52/48
f 89/52/48 91/56/48 93/59/48
f 93/59/48 95/62/48 86/66/48
f 86/66/48 39/136/48 41/89/48
f 41/89/48 43/139/48 45/141/48
f 45/141/48 47/143/48 38/145/48
f 38/145/48 15/147/48 17/149/48
f 17/149/48 19/151/48 21/90/48
f 21/90/48 23/154/48 14/156/48
f 14/156/48 63/68/48 65/73/48
f 65/73/48 67/76/48 69/80/48
f 69/80/48 71/83/48 62/86/48
f 62/86/48 89/52/48 93/59/48
f 93/59/48 86/66/48 41/89/48
f 41/89/48 45/141/48 38/145/48
f 38/145/48 17/149/48 21/90/48
f 21/90/48 14/156/48 65/73/48
f 65/73/48 69/80/48 62/86/48
f 62/86/48 93/59/48 41/89/48
f 41/89/48 38/145/48 21/90/48
f 21/90/48 65/73/48 62/86/48
f 37/26/49 86/66/49 73/91/49
f 85/48/50 62/86/50 49/92/50
f 98/11/46 100/94/46 99/93/46
f 100/94/51 102/100/51 101/95/51
f 102/96/52 98/9/52 97/10/52
