# Blender 4.5.3 LTS
# www.blender.org
mtllib CenterPiecePodium.mtl
o Cube
v 5.000000 -1.000000 -5.000000
v 5.000000 -1.000000 5.000000
v -5.000000 -1.000000 -5.000000
v -5.000000 -1.000000 5.000000
v 4.500000 1.000000 -4.500000
v 5.000000 0.500000 -5.000000
v 4.500000 1.000000 4.500000
v 5.000000 0.500000 5.000000
v -4.500000 1.000000 -4.500000
v -5.000000 0.500000 -5.000000
v -4.500000 1.000000 4.500000
v -5.000000 0.500000 5.000000
v 3.555811 1.000000 3.555811
v -3.555811 1.000000 3.555811
v 3.555811 1.000000 -3.555811
v -3.555811 1.000000 -3.555811
v 3.555811 2.000000 3.555811
v 2.555811 3.000000 2.555811
v -2.555811 3.000000 2.555811
v -3.555811 2.000000 3.555811
v 3.555811 2.000000 -3.555811
v 2.555811 3.000000 -2.555811
v -2.555811 3.000000 -2.555811
v -3.555811 2.000000 -3.555811
vn 0.5773 -0.5774 -0.5773
vn 0.5773 -0.5774 0.5774
vn -0.5773 -0.5774 -0.5774
vn -0.5773 -0.5774 0.5773
vn 0.3002 0.9054 -0.3002
vn 0.6507 0.3914 -0.6507
vn 0.3002 0.9054 0.3002
vn 0.6507 0.3914 0.6507
vn -0.3002 0.9054 -0.3002
vn -0.6507 0.3914 -0.6507
vn -0.3002 0.9054 0.3002
vn -0.6507 0.3914 0.6507
vn 0.3015 0.9045 0.3015
vn -0.3015 0.9045 0.3015
vn 0.3015 0.9045 -0.3015
vn -0.3015 0.9045 -0.3015
vt 0.375000 0.500000
vt 0.125000 0.750000
vt 0.125000 0.500000
vt 0.862500 0.737500
vt 0.572166 0.750000
vt 0.637500 0.737500
vt 0.572166 0.500000
vt 0.637500 0.512500
vt 0.862500 0.512500
vt 0.875000 0.750000
vt 0.875000 0.500000
vt 0.562500 0.250000
vt 0.375000 0.250000
vt 0.375000 0.750000
vt 0.375000 1.000000
vt 0.562500 0.000000
vt 0.375000 0.000000
vt 0.830862 0.705862
vt 0.637500 0.737500
vt 0.669138 0.705862
vt 0.637500 0.512500
vt 0.669138 0.544138
vt 0.830862 0.544138
vt 0.862500 0.737500
vt 0.562500 1.000000
s 1
usemtl Material
f 1/1/1 4/2/4 3/3/3
f 11/4/11 8/5/8 7/6/7
f 7/6/7 6/7/6 5/8/5
f 9/9/9 12/10/12 11/4/11
f 5/8/5 10/11/10 9/9/9
f 10/12/10 1/1/1 3/13/3
f 6/7/6 2/14/2 1/1/1
f 11/4/11 16/9/16 9/9/9
f 8/5/8 4/15/4 2/14/2
f 12/16/12 3/13/3 4/17/4
f 5/8/5 13/6/13 7/6/7
f 7/6/7 14/4/14 11/4/11
f 9/9/9 15/8/15 5/8/5
f 19/18/11 17/19/8 18/20/7
f 18/20/7 21/21/6 22/22/5
f 23/23/9 20/24/12 19/18/11
f 22/22/5 24/9/10 23/23/9
f 13/6/13 20/24/12 14/4/14
f 23/23/9 18/20/7 22/22/5
f 15/8/15 17/19/8 13/6/13
f 14/4/14 24/9/10 16/9/16
f 16/9/16 21/21/6 15/8/15
f 1/1/1 2/14/2 4/2/4
f 11/4/11 12/10/12 8/5/8
f 7/6/7 8/5/8 6/7/6
f 9/9/9 10/11/10 12/10/12
f 5/8/5 6/7/6 10/11/10
f 10/12/10 6/7/6 1/1/1
f 6/7/6 8/5/8 2/14/2
f 11/4/11 14/4/14 16/9/16
f 8/5/8 12/25/12 4/15/4
f 12/16/12 10/12/10 3/13/3
f 5/8/5 15/8/15 13/6/13
f 7/6/7 13/6/13 14/4/14
f 9/9/9 16/9/16 15/8/15
f 19/18/11 20/24/12 17/19/8
f 18/20/7 17/19/8 21/21/6
f 23/23/9 24/9/10 20/24/12
f 22/22/5 21/21/6 24/9/10
f 13/6/13 17/19/8 20/24/12
f 23/23/9 19/18/11 18/20/7
f 15/8/15 21/21/6 17/19/8
f 14/4/14 20/24/12 24/9/10
f 16/9/16 24/9/10 21/21/6
